<?xml version="1.0" encoding="utf-8"?>
<!-- Generator: Adobe Illustrator 24.3.0, SVG Export Plug-In . SVG Version: 6.00 Build 0)  -->
<svg version="1.1" id="appLogo" xmlns="http://www.w3.org/2000/svg" xmlns:xlink="http://www.w3.org/1999/xlink" x="0px" y="0px"
	 viewBox="0 0 1920 1920" style="enable-background:new 0 0 1920 1920;" xml:space="preserve">
<style type="text/css">
	.st0{opacity:0.75;fill:#1F252E;}
	.st1{opacity:0.75;}
	.st2{fill:#FFFFFF;}
</style>
<path class="st0" d="M849.7,924.4h35.6l-47.6,125.2h-36.8l-47.6-125.2h35.6l30.3,87.6L849.7,924.4z M916.8,909.4
	c-5.3,0-10-2-13.9-5.9s-5.9-8.6-5.9-13.9c0-5.3,2-10,5.9-14s8.6-6,13.9-6c5.5,0,10.3,2,14.2,6s5.9,8.7,5.9,14c0,5.3-2,10-5.9,13.9
	C927,907.5,922.3,909.4,916.8,909.4z M900.7,1049.7V924.4H933v125.2L900.7,1049.7L900.7,1049.7z M1034.3,955.5H1006v52.1
	c0,4.3,1.1,7.5,3.3,9.5c2.1,2,5.3,3.1,9.5,3.4s9.4,0.2,15.5-0.1v29.3c-22.2,2.5-37.9,0.4-46.9-6.3c-9.1-6.7-13.7-18.6-13.7-35.8
	v-52.1h-21.8v-31h21.8v-25.3l32.3-9.8v35h28.3L1034.3,955.5L1034.3,955.5z M1148.5,924.4h32.3v125.2h-32.3v-14.8
	c-9.7,12.2-23.3,18.3-40.8,18.3c-16.7,0-31-6.4-43-19.1c-12-12.8-17.9-28.4-17.9-46.9c0-18.6,6-34.2,17.9-46.9
	c12-12.8,26.2-19.1,43-19.1c17.6,0,31.1,6.1,40.8,18.3V924.4z M1088.8,1012.5c6.5,6.6,14.8,9.9,24.8,9.9s18.3-3.3,24.9-9.9
	c6.6-6.6,9.9-15,9.9-25.4c0-10.3-3.3-18.8-9.9-25.4c-6.6-6.6-14.9-9.9-24.9-9.9s-18.3,3.3-24.8,9.9c-6.5,6.6-9.8,15-9.8,25.4
	C1079.1,997.4,1082.3,1005.9,1088.8,1012.5z M1210.1,1049.7V866.8h32.3v182.8L1210.1,1049.7L1210.1,1049.7z M1354.3,924.4h35.6
	l-47.6,125.2h-36.8l-47.6-125.2h35.6l30.3,87.6L1354.3,924.4z M1507.1,1034c-12.8,12.8-28.6,19.1-47.1,19.1s-34.2-6.4-46.9-19.1
	c-12.8-12.8-19.1-28.4-19.1-46.9c0-18.6,6.4-34.2,19.1-46.9s28.4-19.1,46.9-19.1s34.2,6.4,47.1,19.1c12.8,12.8,19.3,28.4,19.3,46.9
	S1519.9,1021.2,1507.1,1034z M1435.8,1011.8c6.4,6.5,14.5,9.8,24.2,9.8s17.8-3.3,24.3-9.8s9.8-14.8,9.8-24.8s-3.3-18.3-9.8-24.8
	s-14.6-9.8-24.3-9.8s-17.7,3.3-24.2,9.8c-6.4,6.5-9.6,14.8-9.6,24.8C1426.2,997.1,1429.4,1005.3,1435.8,1011.8z M1618,955.5h-28.3
	v52.1c0,4.3,1.1,7.5,3.3,9.5c2.1,2,5.3,3.1,9.5,3.4s9.4,0.2,15.5-0.1v29.3c-22.2,2.5-37.9,0.4-46.9-6.3
	c-9.1-6.7-13.7-18.6-13.7-35.8v-52.1h-21.8v-31h21.8v-25.3l32.3-9.8v35h28.3L1618,955.5L1618,955.5z M1664.4,1000.3
	c4.3,15.7,16.1,23.5,35.3,23.5c12.3,0,21.7-4.2,28.1-12.5l26,15c-12.3,17.9-30.6,26.8-54.6,26.8c-20.7,0-37.3-6.2-49.8-18.8
	c-12.5-12.5-18.8-28.3-18.8-47.3c0-18.9,6.2-34.6,18.6-47.2c12.3-12.6,28.2-18.9,47.6-18.9c18.4,0,33.5,6.4,45.4,19
	c12,12.7,17.9,28.4,17.9,47.1c0,4.2-0.4,8.6-1.3,13.3H1664.4L1664.4,1000.3z M1663.9,975.3h63.9c-1.8-8.5-5.7-14.8-11.4-19
	c-5.8-4.2-12.3-6.3-19.6-6.3c-8.7,0-15.9,2.2-21.5,6.6C1669.4,961.1,1665.7,967.2,1663.9,975.3z"/>
<g class="st1">
	<path class="st2" d="M403.9,1126.1l-51.9-51.9l259.5-259.5l51.9,51.9L403.9,1126.1z M486.9,793.9l-207.5,207.6L211.9,934L160,985.9
		l119.4,119.4l259.4-259.5L486.9,793.9z"/>
</g>
</svg>
